<svg width="206" height="77" viewBox="0 0 206 77" fill="none" xmlns="http://www.w3.org/2000/svg">
<path d="M34.9465 27.5431C34.0042 25.8036 32.7479 24.3539 31.2016 23.2667C29.7278 22.2036 28.0849 21.358 26.3453 20.7057C24.654 20.0775 22.987 19.546 21.3441 19.0869C19.8219 18.652 18.3481 18.193 16.9951 17.7339C15.7871 17.3232 14.265 16.6467 13.6368 15.4387C13.0811 14.3997 13.0569 12.636 13.975 11.8146C16.222 9.7609 20.6192 10.3649 23.1078 11.5488C25.5963 12.7327 26.8768 15.487 29.8244 15.7044C31.2016 15.8011 32.4096 15.4387 33.4485 14.5689C35.2364 13.0709 35.5022 11.4521 35.4055 10.3649C35.2847 8.98776 34.8498 7.77973 34.125 6.74082C32.8928 5.12206 31.3707 3.76906 29.5587 2.77847C27.8191 1.81205 25.9346 1.08723 24.0259 0.652338C22.1172 0.217446 20.281 0 18.5414 0C15.7629 0 13.0811 0.555695 10.5442 1.69125C7.98321 2.8268 5.85707 4.46972 4.23831 6.54754C2.57122 8.69783 1.72562 11.3555 1.72562 14.3997C1.72562 17.0574 2.23296 19.3044 3.24771 21.1164C4.2383 22.8801 5.56716 24.3298 7.16176 25.3928C8.68388 26.4076 10.3993 27.2532 12.2113 27.9056C13.9509 28.5096 15.6904 29.0894 17.4059 29.5968C18.9763 30.0317 20.4259 30.4907 21.7064 30.9981C22.8903 31.4572 23.8326 31.9887 24.5332 32.6169C25.7896 33.7524 25.6446 35.4678 24.6057 36.7C22.3105 39.4543 17.0193 38.6329 14.2408 37.1832C12.6462 36.3618 11.0758 35.1537 9.62612 33.6316C8.51473 32.4961 7.33088 31.8437 6.09869 31.7471C3.34437 31.5055 0.155157 33.7283 0.0101928 36.7725C-0.0622891 38.2705 0.251798 39.5268 0.952457 40.5174L0.976604 40.5416C3.19938 43.6341 6.05034 45.8086 9.43283 47.0166C12.7187 48.2005 16.0529 48.8045 19.3387 48.8045C21.9964 48.8045 24.6541 48.2488 27.1909 47.1616C29.7761 46.0502 31.9506 44.4073 33.6901 42.257C35.478 40.0342 36.372 37.3282 36.372 34.2115C36.3961 31.5538 35.9129 29.3069 34.9465 27.5431Z" fill="#FC98A4"/>
<path d="M204.071 27.5431C203.129 25.8036 201.872 24.3539 200.326 23.2667C198.852 22.2036 197.209 21.358 195.47 20.7057C193.779 20.0775 192.112 19.546 190.469 19.0869C188.946 18.652 187.473 18.193 186.12 17.7339C184.912 17.3232 183.39 16.6467 182.761 15.4387C182.206 14.3997 182.182 12.636 183.1 11.8146C185.347 9.7609 189.744 10.3649 192.232 11.5488C194.721 12.7327 196.001 15.487 198.949 15.7044C200.326 15.8011 201.534 15.4387 202.573 14.5689C204.361 13.0709 204.627 11.4521 204.53 10.3649C204.409 8.98776 203.974 7.77973 203.25 6.74082C202.017 5.12206 200.495 3.76906 198.683 2.77847C196.944 1.81205 195.059 1.08723 193.15 0.652338C191.242 0.217446 189.406 0 187.666 0C184.887 0 182.206 0.555695 179.669 1.69125C177.108 2.8268 174.982 4.46972 173.363 6.54754C171.696 8.69783 170.85 11.3555 170.85 14.3997C170.85 17.0574 171.358 19.3044 172.372 21.1164C173.363 22.8801 174.692 24.3298 176.286 25.3928C177.808 26.4076 179.524 27.2532 181.336 27.9056C183.075 28.5096 184.815 29.0894 186.53 29.5968C188.101 30.0317 189.55 30.4907 190.831 30.9981C192.015 31.4572 192.957 31.9887 193.658 32.6169C194.914 33.7524 194.769 35.4678 193.73 36.7C191.435 39.4543 186.144 38.6329 183.365 37.1832C181.771 36.3618 180.2 35.1537 178.751 33.6316C177.639 32.4961 176.455 31.8437 175.223 31.7471C172.469 31.5055 169.28 33.7283 169.135 36.7725C169.062 38.2705 169.376 39.5268 170.077 40.5174L170.101 40.5416C172.324 43.6341 175.175 45.8086 178.557 47.0166C181.843 48.2005 185.177 48.8045 188.463 48.8045C191.121 48.8045 193.779 48.2488 196.315 47.1616C198.901 46.0502 201.075 44.4073 202.815 42.257C204.603 40.0342 205.497 37.3282 205.497 34.2115C205.497 31.5538 205.013 29.3069 204.071 27.5431Z" fill="#FC98A4"/>
<path d="M76.672 2.60966C75.5365 1.40162 74.0868 0.797607 72.3714 0.797607C70.656 0.797607 69.2064 1.40162 68.0708 2.60966C66.9353 3.81769 66.3796 5.31565 66.3796 7.07938V28.3407C66.3796 31.4333 65.7514 33.7044 64.4951 35.1057C63.287 36.4829 61.33 37.1836 58.7207 37.1836C56.1355 37.1836 54.2751 36.5071 53.0187 35.1057C51.7624 33.7044 51.1342 31.4092 51.1342 28.3407V7.07938C51.1342 5.31565 50.5544 3.81769 49.443 2.60966C48.3074 1.40162 46.8578 0.797607 45.1423 0.797607C43.4269 0.797607 41.9773 1.40162 40.8418 2.60966C39.7062 3.81769 39.1505 5.31565 39.1505 7.07938V28.3407C39.1505 34.55 40.8418 39.5513 44.1759 43.1996C47.5343 46.8961 52.4147 48.7565 58.6965 48.7565C64.9541 48.7565 69.8587 46.8961 73.2412 43.1996C76.5995 39.5271 78.3149 34.5259 78.3149 28.3166V7.05522C78.3874 5.31565 77.8076 3.81769 76.672 2.60966Z" fill="#FC98A4"/>
<path d="M119.05 35.8061C118.083 34.6222 116.682 34.0182 114.942 34.0182C113.493 34.0182 112.357 34.3564 111.56 35.0329C111.028 35.492 110.4 35.9269 109.724 36.3376C109.192 36.6034 108.492 36.8208 107.646 36.9658C106.752 37.1108 105.641 37.2074 104.36 37.2074C102.161 37.2074 100.229 36.6517 98.5615 35.5403C96.8945 34.4289 95.5657 32.9068 94.5992 31.0223C93.6328 29.1136 93.1496 26.8908 93.1496 24.4264C93.1496 21.8896 93.6328 19.6426 94.5509 17.7339C95.469 15.8494 96.7979 14.3273 98.5374 13.24C100.253 12.1286 102.403 11.573 104.916 11.573C105.23 11.573 105.882 11.6213 107.187 11.8387C108.371 12.0562 108.975 12.2978 109.265 12.4911L109.313 12.5152C109.82 12.8051 110.279 13.1192 110.642 13.4575C111.149 13.9165 111.753 14.3273 112.43 14.6172C113.13 14.9313 114 15.1004 115.015 15.1004C116.634 15.1004 117.938 14.4239 118.784 13.1192C119.557 11.9354 119.944 10.6548 119.944 9.30185C119.944 7.29652 119.171 5.55695 117.673 4.10731C116.271 2.77847 114.338 1.76373 111.874 1.03891C109.506 0.338249 106.68 0 103.539 0C99.2139 0 95.2999 1.06307 91.9415 3.14088C88.5832 5.2187 85.9014 8.14214 84.0169 11.7904C82.1323 15.4387 81.1901 19.6909 81.1901 24.4506C81.1901 28.9686 82.084 33.1243 83.8477 36.7725C85.6356 40.4691 88.1966 43.4167 91.4825 45.567C94.7683 47.7173 98.7065 48.8045 103.152 48.8045C106.1 48.8045 108.878 48.4421 111.415 47.7173C113.976 46.9925 116.102 46.0019 117.721 44.7697C119.533 43.3925 120.451 41.7979 120.451 40.01C120.451 38.343 119.968 36.9416 119.05 35.8061Z" fill="#FC98A4"/>
<path d="M166.864 23.2425C166.694 20.2949 166.042 17.4439 164.907 14.7621C164.327 13.3607 163.602 11.9836 162.732 10.6789C160.316 7.00649 157.03 4.13138 153.237 2.39181C150.386 1.06297 147.366 0.386475 144.225 0.386475C143.524 0.386475 142.848 0.410635 142.123 0.483117L141.64 0.531439C141.302 0.57976 141.036 0.893848 141.084 1.25626L141.35 3.98641C141.374 4.34882 141.688 4.61459 142.051 4.56627L142.485 4.51795C145.675 4.20386 148.767 4.73539 151.691 6.11255C154.856 7.58635 157.586 9.95409 159.591 13.0225C160.316 14.1097 160.92 15.2453 161.403 16.4291C162.346 18.6519 162.901 21.0438 163.046 23.5324C163.07 23.9673 163.094 24.4022 163.094 24.7887C163.094 27.7122 162.515 30.5631 161.403 33.2208C161.331 33.4141 161.234 33.6315 161.065 33.9456C159.905 36.41 158.311 38.5845 156.354 40.3482C155.846 39.5992 155.218 38.7778 154.566 37.9805C155.991 36.6999 157.199 35.1537 158.117 33.4141C159.301 31.2396 160.002 28.8719 160.195 26.3833C160.244 25.876 160.268 25.3686 160.268 24.7887C160.268 21.7445 159.519 18.7727 158.117 16.1875C157.683 15.3419 157.127 14.5205 156.499 13.699C154.034 10.5581 150.652 8.45613 146.979 7.8038C146.738 7.75547 146.496 7.70715 146.279 7.68299C145.651 7.58635 144.95 7.53803 144.225 7.53803C140.939 7.53803 137.798 8.6011 135.116 10.5823C133.933 11.4762 132.845 12.5151 131.927 13.699C129.511 16.7916 128.182 20.7297 128.182 24.7887C128.182 25.3686 128.207 25.876 128.255 26.3833C128.279 26.6974 128.569 26.939 128.883 26.8907L130.695 26.6733C131.033 26.6249 131.275 26.335 131.251 25.9726C131.227 25.5619 131.178 25.0303 131.178 24.7887C131.178 21.4787 132.266 18.2654 134.247 15.7285C134.996 14.7621 135.865 13.9164 136.832 13.1916C139.006 11.5729 141.543 10.7272 144.201 10.7272C144.805 10.7272 145.361 10.7756 145.892 10.848H146.013C146.11 10.848 146.206 10.8722 146.375 10.9205C149.395 11.4762 152.15 13.1675 154.155 15.7285C154.662 16.3808 155.097 17.0573 155.46 17.7338C156.619 19.86 157.223 22.3002 157.223 24.7646C157.223 25.2236 157.199 25.6344 157.151 26.0451C156.982 28.0987 156.402 30.0316 155.46 31.7953C154.687 33.245 153.672 34.5255 152.464 35.5885C150.99 33.9698 149.589 32.5926 148.912 31.892C150.869 30.3698 152.222 27.9296 152.343 25.2236C152.391 24.233 152.295 23.2666 152.053 22.3485C151.932 21.9136 151.449 21.7203 151.111 21.9619C150.458 22.421 149.661 22.6143 148.791 22.4451C147.511 22.2035 146.448 21.0438 146.23 19.6667C146.085 18.7486 146.279 17.8788 146.714 17.1781C146.931 16.8157 146.738 16.3325 146.327 16.2117C144.781 15.7526 143.017 15.7768 141.302 16.4291C138.499 17.5164 136.47 20.2465 136.059 23.4116C135.31 29.2101 139.779 34.1147 145.143 33.4382C145.916 33.3416 146.641 33.1242 147.318 32.8101C147.704 33.4624 148.791 35.2503 150.096 37.2073C148.912 37.8596 147.608 38.3187 146.279 38.5603C146.158 38.5845 146.061 38.6086 145.94 38.6086L145.82 38.6328C145.312 38.7053 144.757 38.7536 144.153 38.7536C141.519 38.7536 138.982 37.908 136.784 36.2892L136.759 36.265C136.494 36.0959 136.107 36.1442 135.914 36.4342L134.851 37.908C134.657 38.1979 134.682 38.5845 134.947 38.8019L135.141 38.971C137.798 40.9039 140.915 41.9428 144.153 41.9428C144.877 41.9428 145.578 41.8945 146.206 41.7978C146.424 41.7737 146.641 41.7495 146.859 41.7012C148.622 41.3871 150.362 40.7348 151.932 39.7925C152.585 40.6623 153.237 41.4596 153.841 42.1361C153.116 42.5951 152.391 43.0059 151.618 43.3683C150.845 43.7307 149.999 44.0689 149.106 44.3105C146.979 44.9387 144.684 45.1562 142.461 44.9387L141.93 44.8904C140.939 44.7696 140.045 44.5763 139.175 44.3105C136.832 43.634 134.682 42.4743 132.725 40.8556C130.453 39.0194 128.593 36.5791 127.313 33.849C125.96 30.998 125.283 27.9296 125.283 24.6921C125.283 24.3297 125.283 23.8706 125.331 23.3874C125.549 19.6184 126.733 15.9943 128.762 12.9259C129.632 11.597 131.831 9.44672 132.725 8.57694C132.966 8.35949 132.99 7.97292 132.797 7.70715L131.178 5.38773C130.985 5.12196 130.623 5.07364 130.381 5.26693C128.545 6.74073 126.95 8.52861 125.597 10.5823C123.157 14.2547 121.731 18.6036 121.466 23.0975C121.417 23.5565 121.417 24.0639 121.417 24.6921C121.417 28.5095 122.263 32.3269 123.858 35.661C125.38 38.9469 127.627 41.8462 130.357 44.0689C132.7 46.0018 135.31 47.4031 138.112 48.2246C139.151 48.5387 140.239 48.7803 141.447 48.9252L142.026 48.9977C142.727 49.0702 143.404 49.0943 144.08 49.0943C146.11 49.0943 148.115 48.8044 150.048 48.2246C151.135 47.9105 152.15 47.5239 153.092 47.0649C157.972 44.8179 161.959 40.7589 164.303 35.7094C164.496 35.3228 164.641 34.9845 164.737 34.7188C166.066 31.5779 166.743 28.1954 166.743 24.6679C166.912 24.1364 166.888 23.6532 166.864 23.2425Z" fill="#FC98A4"/>
<path d="M9.45692 65.7899H6.2677V72.0958H4.33484V57.8411H9.45692C10.6166 57.8411 11.5589 58.1552 12.2837 58.7833C12.6944 59.1699 13.0327 59.6048 13.2501 60.1363C13.4917 60.6679 13.6126 61.2236 13.6126 61.8034C13.6126 62.4074 13.4917 62.9631 13.2501 63.4947C13.0085 64.0262 12.6944 64.4611 12.2837 64.8477C11.5831 65.4758 10.6408 65.7899 9.45692 65.7899ZM6.2677 63.8571H9.36026C10.1576 63.8571 10.7616 63.6396 11.124 63.2289C11.4864 62.8182 11.6797 62.3591 11.6797 61.8276C11.6797 61.296 11.4864 60.8128 11.124 60.4263C10.7374 60.0155 10.1576 59.7981 9.36026 59.7981H6.2677V63.8571Z" fill="#FC98A4"/>
<path d="M22.1415 72.0954V71.2256C21.3925 71.9504 20.4502 72.2887 19.3388 72.2887C18.4932 72.2887 17.7201 72.0712 17.0436 71.6605C16.3429 71.2256 15.7631 70.6216 15.3523 69.8484C14.9416 69.0753 14.7241 68.2297 14.7241 67.2874C14.7241 66.3451 14.9416 65.4995 15.3765 64.7264C15.8114 63.9532 16.367 63.3492 17.0677 62.9143C17.72 62.5036 18.4449 62.3103 19.2905 62.3103C20.4019 62.3103 21.3442 62.6727 22.1415 63.3975V62.5036H23.9052V72.0712H22.1415V72.0954ZM22.069 69.0994V65.4995C21.7791 65.0888 21.3925 64.7505 20.9576 64.5089C20.4985 64.2673 20.0153 64.1465 19.4838 64.1465C18.6381 64.1465 17.9375 64.4606 17.3818 65.0888C16.8261 65.717 16.5604 66.4659 16.5604 67.3116C16.5604 68.1813 16.8503 68.9303 17.4301 69.5343C18.01 70.1625 18.7107 70.4524 19.5804 70.4524C20.0636 70.4524 20.4985 70.3316 20.9576 70.09C21.3925 69.8726 21.7791 69.5343 22.069 69.0994Z" fill="#FC98A4"/>
<path d="M27.8915 60.0155C27.674 59.7739 27.5532 59.484 27.5532 59.1216C27.5532 58.7592 27.674 58.4692 27.8915 58.2035C28.1331 57.9619 28.3989 57.8411 28.7371 57.8411C29.0754 57.8411 29.3653 57.9619 29.6069 58.2035C29.8485 58.4451 29.9693 58.7592 29.9693 59.1216C29.9693 59.484 29.8485 59.7739 29.6069 60.0155C29.3653 60.2571 29.0754 60.3779 28.7371 60.3779C28.3989 60.4021 28.1331 60.2571 27.8915 60.0155ZM27.8432 72.0958V62.5282H29.6794V72.0958H27.8432Z" fill="#FC98A4"/>
<path d="M35.3813 62.5277V63.4459C35.6712 63.1318 36.0578 62.8902 36.5168 62.6486C36.9759 62.4311 37.5074 62.3103 38.0872 62.3103C38.7396 62.3103 39.3678 62.4553 39.9235 62.7694C40.4792 63.0834 40.9865 63.4942 41.3731 64.0015C41.9771 64.7988 42.2671 65.9344 42.2671 67.4082V72.0954H40.4308V67.3116C40.4308 66.2968 40.2617 65.5478 39.8993 65.0888C39.6818 64.7988 39.4161 64.5814 39.0778 64.4123C38.7396 64.2432 38.4013 64.1465 38.0148 64.1465C36.9759 64.1465 36.1061 64.6056 35.4054 65.4995V72.0954H33.5692V62.5277H35.3813Z" fill="#FC98A4"/>
<path d="M51.1824 70.3558L51.5448 72.0954C51.1582 72.2162 50.675 72.2887 50.1193 72.2887C49.0321 72.2887 48.1623 71.9263 47.5583 71.1773C47.0751 70.5975 46.8335 69.7518 46.8335 68.6404V64.2674H44.514V62.5278H46.8335V59.8943H48.6697V62.5278H51.5689V64.2674H48.6697V68.7371C48.6697 69.3411 48.7663 69.7518 48.9354 69.9693C49.0562 70.1384 49.2495 70.2592 49.467 70.3317C49.7086 70.4283 49.9502 70.4767 50.1918 70.4767C50.5784 70.4767 50.8924 70.4283 51.1824 70.3558Z" fill="#FC98A4"/>
<path d="M69.5444 57.8411L64.9056 65.5966V72.12H62.9727V65.5966L58.3339 57.8411H60.5083L63.9392 63.5671L67.3941 57.8411H69.5444Z" fill="#FC98A4"/>
<path d="M70.6317 70.8876C69.7377 69.9453 69.2787 68.7614 69.2787 67.336C69.2787 65.9105 69.7136 64.7266 70.6317 63.7602C71.5256 62.8179 72.637 62.3347 73.99 62.3347C75.343 62.3347 76.4544 62.8179 77.3483 63.7602C78.2423 64.7025 78.6772 65.9105 78.6772 67.336C78.6772 68.7614 78.2423 69.9453 77.3483 70.8876C76.4544 71.8299 75.343 72.3131 73.99 72.3131C72.6612 72.3131 71.5256 71.8299 70.6317 70.8876ZM71.9364 65.0649C71.4048 65.6689 71.1391 66.4179 71.1391 67.3118C71.1391 68.2058 71.4048 68.9547 71.9364 69.5588C72.4679 70.1628 73.1685 70.4769 73.99 70.4769C74.8115 70.4769 75.5121 70.1628 76.0437 69.5588C76.5752 68.9547 76.841 68.2058 76.841 67.3118C76.841 66.4179 76.5752 65.6689 76.0437 65.0649C75.5121 64.4609 74.8115 64.1468 73.99 64.1468C73.1685 64.1468 72.4921 64.4609 71.9364 65.0649Z" fill="#FC98A4"/>
<path d="M85.7079 72.3131C85.0556 72.3131 84.4757 72.1682 83.8959 71.9024C83.3402 71.6125 82.857 71.2259 82.4704 70.7185C82.1805 70.332 81.9872 69.8971 81.8422 69.3897C81.6973 68.8823 81.6489 68.23 81.6489 67.4327V62.5281H83.4852V67.7226C83.4852 68.5682 83.6543 69.2206 83.9925 69.6313C84.21 69.8971 84.4516 70.0903 84.7657 70.2353C85.0798 70.3803 85.418 70.4528 85.7563 70.4528C86.2636 70.4528 86.7468 70.332 87.1817 70.0662C87.6166 69.8004 88.0032 69.4863 88.2931 69.0998V62.5039H90.1293V72.0715H88.3415V71.2017C88.0757 71.4675 87.7133 71.7091 87.2301 71.9266C86.7952 72.1923 86.2636 72.3131 85.7079 72.3131Z" fill="#FC98A4"/>
<path d="M99.2863 62.383L99.0688 64.2434C98.8755 64.1951 98.634 64.1709 98.344 64.1709C97.885 64.1709 97.4259 64.3159 96.9669 64.63C96.5078 64.9441 96.1454 65.3306 95.9038 65.7897V72.1198H94.0676V62.5522H95.8313V63.6636C96.0729 63.3012 96.4354 62.9871 96.9186 62.7455C97.4018 62.5039 97.9333 62.3589 98.5615 62.3589C98.8272 62.3347 99.0689 62.3589 99.2863 62.383Z" fill="#FC98A4"/>
<path d="M107.356 67.8674C107.018 66.9493 106.824 66.007 106.824 64.9681C106.824 63.9534 106.994 62.987 107.356 62.0689C107.694 61.1507 108.177 60.3776 108.781 59.7253C109.385 59.0729 110.086 58.5656 110.932 58.179C111.777 57.7924 112.671 57.6233 113.614 57.6233C114.87 57.6233 116.03 57.9374 117.044 58.5897C118.083 59.2179 118.905 60.1118 119.485 61.2232C120.064 62.3346 120.379 63.591 120.379 64.944C120.379 66.3211 120.089 67.5533 119.485 68.6647C118.905 69.7761 118.083 70.67 117.044 71.2982C116.005 71.9264 114.87 72.2646 113.614 72.2646C112.671 72.2646 111.777 72.0714 110.932 71.709C110.086 71.3224 109.385 70.815 108.781 70.1627C108.177 69.5587 107.718 68.7855 107.356 67.8674ZM108.781 64.9681C108.781 66.5144 109.241 67.7949 110.159 68.8338C111.077 69.8727 112.236 70.3801 113.614 70.3801C114.991 70.3801 116.15 69.8727 117.069 68.8338C117.987 67.7949 118.446 66.5144 118.446 64.9681C118.446 63.4218 117.987 62.1413 117.069 61.1024C116.15 60.0635 114.991 59.5561 113.614 59.5561C112.236 59.5561 111.077 60.0635 110.159 61.1024C109.241 62.1413 108.781 63.446 108.781 64.9681Z" fill="#FC98A4"/>
<path d="M128.762 62.5281H130.043L132.531 69.0756L135.02 62.5281H136.929L133.232 72.0957H131.951L129.415 65.379L126.854 72.0957H125.573L121.876 62.5281H123.785L126.274 69.0756L128.762 62.5281Z" fill="#FC98A4"/>
<path d="M141.157 62.5277V63.4459C141.447 63.1318 141.833 62.8902 142.292 62.6486C142.751 62.4311 143.283 62.3103 143.863 62.3103C144.515 62.3103 145.143 62.4553 145.699 62.7694C146.255 63.0834 146.762 63.4942 147.149 64.0015C147.753 64.7988 148.042 65.9344 148.042 67.4082V72.0954H146.206V67.3116C146.206 66.2968 146.037 65.5478 145.675 65.0888C145.457 64.7988 145.191 64.5814 144.853 64.4123C144.515 64.2432 144.177 64.1465 143.79 64.1465C142.751 64.1465 141.881 64.6056 141.181 65.4995V72.0954H139.345V62.5277H141.157Z" fill="#FC98A4"/>
<path d="M156.209 69.9211L157.538 68.5439C158.504 69.7761 159.591 70.3801 160.848 70.3801C161.5 70.3801 162.056 70.1868 162.515 69.7761C162.974 69.3654 163.215 68.858 163.215 68.2298C163.215 67.8191 163.119 67.4567 162.925 67.1426C162.732 66.8285 162.442 66.5627 162.08 66.3453C161.717 66.1278 161.355 65.9345 160.993 65.7654C160.63 65.5963 160.195 65.403 159.712 65.1856C159.229 64.9681 158.842 64.7507 158.552 64.5332C157.417 63.7359 156.837 62.697 156.837 61.3923C156.837 60.3293 157.223 59.4353 158.021 58.7105C158.794 57.9857 159.784 57.5991 160.944 57.5991C162.273 57.5991 163.481 58.0823 164.568 59.0246L163.433 60.5226C162.708 59.8702 161.886 59.532 161.017 59.532C160.413 59.532 159.881 59.7011 159.446 60.0393C159.011 60.3776 158.77 60.8608 158.77 61.4407C158.77 61.7789 158.866 62.093 159.084 62.3588C159.301 62.6245 159.567 62.8661 159.929 63.0836C160.292 63.301 160.654 63.4702 161.017 63.6393C161.379 63.8084 161.814 64.0017 162.273 64.2191C162.732 64.4366 163.119 64.654 163.409 64.8715C164.592 65.6929 165.172 66.7802 165.172 68.1332C165.172 69.3654 164.762 70.3559 163.964 71.1291C163.167 71.8781 162.176 72.2646 160.968 72.2646C160.026 72.2646 159.156 72.0714 158.359 71.6606C157.513 71.274 156.813 70.6942 156.209 69.9211Z" fill="#FC98A4"/>
<path d="M173.049 70.3558L173.411 72.0954C173.025 72.2162 172.541 72.2887 171.986 72.2887C170.899 72.2887 170.029 71.9263 169.425 71.1773C168.942 70.5975 168.7 69.7518 168.7 68.6404V64.2674H166.38V62.5278H168.7V59.8943H170.536V62.5278H173.435V64.2674H170.536V68.7371C170.536 69.3411 170.633 69.7518 170.802 69.9693C170.923 70.1384 171.116 70.2592 171.333 70.3317C171.575 70.4283 171.817 70.4767 172.058 70.4767C172.445 70.4767 172.783 70.4283 173.049 70.3558Z" fill="#FC98A4"/>
<path d="M178.896 77.0003H176.939L179.403 71.1051L175.513 62.5281H177.494L180.345 68.834L182.955 62.5281H184.887L178.896 77.0003Z" fill="#FC98A4"/>
<path d="M187.448 72.0955V57.6233H189.285V72.0955H187.448Z" fill="#FC98A4"/>
<path d="M201.196 67.7225H194.189C194.238 68.544 194.552 69.2205 195.107 69.7762C195.663 70.3319 196.34 70.6218 197.137 70.6218C197.741 70.6218 198.248 70.501 198.635 70.2594C199.046 70.0178 199.408 69.7037 199.746 69.3171L200.954 70.5252C200.568 71.0326 200.06 71.4674 199.408 71.8057C198.756 72.1439 198.007 72.3131 197.137 72.3131C196.267 72.3131 195.47 72.0956 194.745 71.6849C194.02 71.25 193.464 70.6701 193.054 69.897C192.643 69.148 192.426 68.2782 192.426 67.336C192.426 65.8863 192.836 64.7025 193.682 63.7602C194.527 62.8179 195.566 62.3347 196.871 62.3347C198.127 62.3347 199.166 62.8179 200.012 63.7602C200.833 64.7025 201.244 65.9105 201.244 67.336C201.22 67.4809 201.22 67.6017 201.196 67.7225ZM196.895 64.026C196.315 64.026 195.76 64.2192 195.301 64.6058C194.817 64.9924 194.503 65.4998 194.358 66.1038H199.311C199.166 65.4998 198.876 64.9924 198.417 64.6058C197.958 64.2192 197.451 64.026 196.895 64.026Z" fill="#FC98A4"/>
</svg>
